<?xml version="1.0" standalone="no"?>
<!DOCTYPE svg PUBLIC "-//W3C//DTD SVG 20010904//EN"
 "http://www.w3.org/TR/2001/REC-SVG-20010904/DTD/svg10.dtd">
<svg version="1.0" xmlns="http://www.w3.org/2000/svg"
 width="512.000000pt" height="512.000000pt" viewBox="0 0 512.000000 512.000000"
 preserveAspectRatio="xMidYMid meet">
<metadata>
Created by potrace 1.11, written by Peter Selinger 2001-2013
</metadata>
<g transform="translate(0.000000,512.000000) scale(0.100000,-0.100000)"
fill="#000000" stroke="none">
<path d="M0 2560 l0 -2560 2560 0 2560 0 0 2560 0 2560 -2560 0 -2560 0 0
-2560z m870 1820 l0 -70 -80 0 -80 0 -2 -247 -3 -248 -82 -3 -83 -3 0 251 0
250 -80 0 -80 0 0 70 0 70 245 0 245 0 0 -70z m434 -12 c13 -46 54 -183 91
-306 36 -123 69 -230 72 -238 5 -12 -9 -14 -88 -12 l-94 3 -19 73 -19 72 -83
0 -83 0 -10 -37 c-5 -21 -14 -54 -18 -73 l-9 -35 -87 -3 c-48 -1 -87 -1 -87 2
0 3 41 144 90 315 50 170 90 312 90 315 0 3 51 6 114 6 l115 0 25 -82z m418
-47 l3 -130 80 130 79 129 108 0 109 0 -101 -131 c-55 -72 -100 -135 -100
-141 0 -5 45 -86 100 -179 55 -93 100 -174 100 -180 0 -6 -37 -9 -97 -7 l-96
3 -35 65 c-19 36 -50 93 -69 128 l-34 62 -25 -29 c-22 -26 -24 -37 -24 -130
l0 -102 -87 3 -88 3 -3 318 -2 317 90 0 89 0 3 -129z m828 59 l0 -70 -120 0
-120 0 0 -50 0 -50 110 0 110 0 0 -70 0 -70 -110 0 -110 0 0 -60 0 -60 125 0
125 0 0 -70 0 -70 -205 0 -205 0 0 320 0 320 200 0 200 0 0 -70z m1515 -734
c35 -11 40 -16 39 -42 -1 -16 -7 -49 -13 -72 -10 -35 -16 -42 -29 -37 -74 32
-174 29 -192 -5 -18 -33 4 -56 81 -86 40 -16 90 -41 111 -57 100 -72 102 -223
3 -304 -46 -38 -101 -53 -198 -53 -66 0 -177 23 -177 36 0 3 7 36 15 73 l16
68 52 -18 c108 -38 208 -16 194 43 -7 25 -11 28 -139 88 -76 35 -115 77 -129
140 -21 94 41 194 138 224 58 18 173 19 228 2z m-3195 -96 l0 -70 -80 0 -80 0
0 -245 0 -245 -85 0 -85 0 0 245 0 245 -80 0 -80 0 0 70 0 70 245 0 245 0 0
-70z m320 -45 l0 -115 110 0 110 0 0 115 0 115 85 0 85 0 0 -315 0 -315 -85 0
-84 0 -3 123 -3 122 -105 0 -105 0 -3 -122 -3 -123 -84 0 -85 0 0 315 0 315
85 0 85 0 0 -115z m870 45 l0 -70 -120 0 -120 0 0 -50 0 -50 110 0 110 0 0
-70 0 -70 -110 0 -110 0 0 -55 0 -55 125 0 125 0 0 -70 0 -70 -205 0 -205 0 0
315 0 315 200 0 200 0 0 -70z m728 3 l-3 -68 -117 -3 -118 -3 0 -54 0 -55 110
0 110 0 0 -70 0 -70 -110 0 -110 0 0 -120 0 -120 -90 0 -90 0 0 315 0 315 210
0 211 0 -3 -67z m262 -248 l0 -315 -95 0 -95 0 0 315 0 315 95 0 95 0 0 -315z
m488 287 c107 -57 119 -200 24 -283 -31 -27 -33 -33 -19 -41 26 -14 44 -56 75
-172 l29 -106 -83 0 -83 0 -15 53 c-8 28 -20 70 -25 92 -17 65 -36 85 -82 85
l-39 0 0 -115 0 -115 -80 0 -80 0 0 309 0 310 23 4 c12 3 87 4 167 3 130 -1
150 -4 188 -24z m1202 -42 l0 -70 -80 0 -80 0 0 -245 0 -245 -85 0 -85 0 0
245 0 245 -80 0 -80 0 0 70 0 70 245 0 245 0 0 -70z m-3954 -691 c24 -6 47
-15 50 -20 4 -7 -23 -129 -30 -136 -1 -1 -24 4 -51 12 -90 27 -165 11 -165
-35 0 -23 26 -42 99 -71 81 -32 136 -73 155 -114 51 -106 15 -214 -88 -267
-57 -30 -201 -37 -281 -14 l-57 17 7 37 c3 20 10 53 16 73 l9 36 52 -18 c73
-25 152 -25 178 1 39 39 22 62 -85 110 -92 41 -133 74 -156 124 -46 101 4 213
114 255 59 23 164 27 233 10z m604 -99 l0 -70 -80 0 -80 0 0 -245 0 -245 -85
0 -85 0 0 245 0 245 -75 0 -75 0 0 70 0 70 240 0 240 0 0 -70z m520 0 l0 -70
-120 0 -120 0 0 -50 0 -50 110 0 110 0 0 -70 0 -70 -110 0 -110 0 0 -55 0 -55
125 0 125 0 0 -70 0 -70 -205 0 -205 0 0 315 0 315 200 0 200 0 0 -70z m523
50 c61 -23 89 -49 112 -102 27 -66 16 -148 -28 -212 -30 -42 -117 -78 -204
-84 l-73 -5 0 -103 0 -104 -85 0 -85 0 0 309 0 310 23 4 c12 2 81 5 154 6 110
1 141 -2 186 -19z m154 -410 c59 -36 63 -135 6 -180 -38 -30 -116 -28 -148 4
-29 29 -39 65 -31 109 14 76 103 110 173 67z m332 6 c58 -31 71 -128 22 -177
-24 -24 -38 -29 -76 -29 -57 0 -80 12 -100 50 -54 104 50 209 154 156z m288
-20 c31 -37 39 -86 18 -129 -18 -39 -50 -57 -100 -57 -50 0 -82 18 -100 57
-27 56 -2 132 49 154 39 16 108 4 133 -25z m1423 -246 c0 -19 -7 -20 -215 -20
l-215 0 0 -180 0 -180 -185 0 -185 0 0 -185 0 -185 -190 0 -190 0 0 -185 0
-185 -185 0 -185 0 -2 -182 -3 -183 -1348 -3 c-1342 -2 -1347 -2 -1347 18 0
20 6 20 1330 20 l1330 0 0 180 0 180 188 2 187 3 3 183 2 182 185 0 185 0 0
185 0 185 190 0 190 0 0 185 0 185 230 0 c223 0 230 -1 230 -20z m-4130 -360
c3 -136 10 -235 17 -251 14 -32 66 -77 99 -85 64 -16 135 12 178 70 19 25 21
45 26 259 5 231 5 232 28 235 l22 3 0 -189 c0 -213 -9 -279 -46 -335 -60 -91
-237 -106 -311 -26 -49 54 -56 91 -61 311 -2 114 -2 215 2 224 3 8 14 14 23
12 16 -3 18 -24 23 -228z m742 209 c22 -12 12 -43 -11 -33 -9 4 -41 9 -71 11
-50 5 -60 2 -88 -22 -41 -35 -50 -81 -26 -132 15 -30 34 -45 93 -75 40 -20 84
-47 97 -59 32 -30 47 -82 41 -136 -9 -86 -70 -133 -170 -133 -75 0 -127 21
-120 48 5 20 5 20 46 1 74 -33 155 -19 191 33 20 28 21 100 1 138 -10 19 -39
40 -89 66 -102 51 -128 79 -134 147 -7 81 21 126 95 153 39 14 112 11 145 -7z
m398 1 c0 -19 -7 -20 -120 -20 l-120 0 0 -105 0 -105 115 0 c108 0 115 -1 115
-20 0 -19 -7 -20 -115 -20 l-115 0 0 -120 0 -120 130 0 c123 0 130 -1 130 -20
0 -19 -7 -20 -150 -20 l-150 0 0 285 0 285 140 0 c133 0 140 -1 140 -20z m655
0 c0 -12 -18 -16 -92 -18 l-93 -3 0 -264 c0 -258 -1 -265 -20 -265 -19 0 -20
7 -20 265 l0 265 -89 0 c-50 0 -93 5 -96 10 -16 26 13 30 208 28 172 -3 202
-5 202 -18z m83 -108 l3 -122 164 0 165 0 0 125 c0 118 1 125 20 125 20 0 20
-7 20 -285 0 -278 0 -285 -20 -285 -19 0 -20 7 -20 140 l0 140 -165 0 -164 0
-3 -137 c-3 -130 -4 -138 -23 -138 -19 0 -20 8 -23 270 -1 148 0 276 3 283 3
7 13 12 22 10 16 -3 18 -18 21 -126z m842 108 c0 -19 -7 -20 -120 -20 l-120 0
0 -105 0 -105 115 0 c108 0 115 -1 115 -20 0 -19 -7 -20 -115 -20 l-115 0 0
-120 0 -120 130 0 c123 0 130 -1 130 -20 0 -19 -7 -20 -150 -20 l-150 0 0 285
0 285 140 0 c133 0 140 -1 140 -20z m-2561 -671 c22 -8 31 -17 28 -28 -2 -9
-10 -14 -18 -12 -62 16 -84 18 -116 10 -51 -11 -83 -49 -83 -100 0 -55 23 -85
94 -121 91 -45 122 -72 142 -124 15 -40 16 -52 5 -93 -14 -53 -43 -88 -88
-107 -66 -28 -198 -7 -198 32 0 20 3 20 72 -4 55 -19 105 -9 146 28 29 25 32
34 32 83 0 69 -21 94 -116 142 -100 51 -143 117 -125 191 23 89 128 137 225
103z m551 -4 c0 -12 -17 -15 -95 -15 l-95 0 0 -265 c0 -258 -1 -265 -20 -265
-19 0 -20 7 -20 265 l0 265 -95 0 c-78 0 -95 3 -95 15 0 13 30 15 210 15 180
0 210 -2 210 -15z m233 -167 c149 -410 140 -380 116 -376 -17 2 -28 22 -54 93
l-32 90 -116 3 -115 3 -20 -53 c-11 -29 -25 -72 -32 -95 -9 -31 -19 -43 -32
-43 -10 0 -18 4 -18 9 0 8 147 415 189 524 6 16 18 27 29 27 14 0 31 -37 85
-182z m287 -98 c0 -242 -2 -280 -15 -280 -13 0 -15 38 -15 280 0 242 2 280 15
280 13 0 15 -38 15 -280z m424 255 c58 -29 80 -64 80 -129 1 -63 -18 -96 -78
-135 l-37 -25 24 -14 c35 -22 52 -56 77 -152 12 -46 26 -92 31 -102 8 -15 6
-18 -15 -18 -27 0 -31 9 -61 129 -29 115 -62 141 -175 141 l-70 0 0 -135 0
-135 -25 0 -25 0 0 294 0 295 33 4 c75 11 202 1 241 -18z m385 14 c22 -8 31
-17 28 -28 -2 -9 -10 -14 -18 -12 -62 16 -84 18 -116 10 -49 -10 -83 -50 -83
-95 0 -59 24 -91 99 -128 93 -47 128 -79 141 -128 31 -113 -44 -208 -164 -208
-38 0 -126 25 -126 35 0 2 3 10 6 19 5 14 9 14 33 2 104 -54 221 -4 221 96 0
62 -25 93 -111 138 -125 65 -160 127 -123 219 15 36 28 51 64 69 49 24 100 28
149 11z"/>
<path d="M1129 4200 l-26 -110 60 0 c43 0 58 3 54 13 -2 6 -15 56 -28 110 -12
53 -26 97 -29 97 -3 0 -17 -49 -31 -110z"/>
<path d="M3327 3493 c-4 -3 -7 -37 -7 -75 l0 -68 50 0 c61 0 90 24 90 73 0 38
-7 50 -37 66 -24 12 -86 15 -96 4z"/>
<path d="M2253 2703 c-9 -3 -13 -30 -13 -84 l0 -79 46 0 c106 0 145 124 50
160 -29 10 -62 12 -83 3z"/>
<path d="M1311 1152 c-24 -70 -46 -133 -49 -139 -3 -10 19 -13 92 -13 53 0 96
3 96 8 0 5 -55 164 -89 254 -4 12 -21 -26 -50 -110z"/>
<path d="M1968 1293 l-38 -4 0 -125 0 -124 80 0 c125 0 180 40 180 130 0 51
-27 92 -72 109 -32 12 -106 19 -150 14z"/>
</g>
</svg>
