<?xml version="1.0" standalone="no"?>
<!DOCTYPE svg PUBLIC "-//W3C//DTD SVG 20010904//EN"
 "http://www.w3.org/TR/2001/REC-SVG-20010904/DTD/svg10.dtd">
<svg version="1.0" xmlns="http://www.w3.org/2000/svg"
 width="454.000000pt" height="454.000000pt" viewBox="0 0 454.000000 454.000000"
 preserveAspectRatio="xMidYMid meet">
<metadata>
Created by potrace 1.11, written by Peter Selinger 2001-2013
</metadata>
<g transform="translate(0.000000,454.000000) scale(0.100000,-0.100000)"
fill="#000000" stroke="none">
<path d="M2080 4514 c-309 -38 -525 -97 -756 -204 -453 -212 -825 -572 -1053
-1020 -372 -729 -321 -1587 134 -2274 160 -242 387 -464 650 -639 111 -73 359
-195 480 -235 492 -163 988 -163 1480 0 130 43 373 164 495 246 391 263 685
620 849 1032 282 708 203 1475 -215 2102 -261 390 -663 707 -1097 863 -104 38
-316 92 -432 110 -96 16 -459 28 -535 19z m-785 -979 l0 -50 -57 -3 -58 -3 0
-169 0 -170 -60 0 -60 0 0 170 0 169 -57 3 -58 3 -3 39 c-6 69 -11 67 180 64
l173 -3 0 -50z m295 -17 c12 -40 42 -139 66 -220 24 -80 44 -149 44 -152 0 -3
-29 -6 -64 -6 l-64 0 -13 50 -13 50 -57 0 -58 0 -10 -37 c-6 -21 -11 -44 -11
-50 0 -9 -20 -13 -66 -13 -53 0 -65 3 -61 14 3 8 31 101 62 208 31 106 58 201
61 211 5 14 18 17 84 17 l79 0 21 -72z m292 -23 l3 -95 56 92 55 93 72 3 c40
2 72 0 72 -4 0 -4 -29 -46 -65 -94 -36 -48 -65 -92 -65 -98 0 -5 31 -65 69
-131 l70 -121 -69 0 -69 0 -47 86 c-45 82 -47 84 -65 68 -15 -14 -19 -31 -19
-86 l0 -68 -60 0 -60 0 0 218 c0 120 3 222 7 225 3 4 30 7 59 7 l53 0 3 -95z
m598 45 l0 -49 -82 -3 -83 -3 0 -35 0 -35 78 -3 77 -3 0 -44 0 -44 -77 -3 -78
-3 0 -40 0 -40 88 -3 87 -3 0 -44 0 -45 -150 0 -150 0 0 218 c0 120 3 222 7
225 3 4 69 7 145 7 l138 0 0 -50z m-1185 -545 l0 -50 -57 -3 -58 -3 0 -169 0
-170 -60 0 -60 0 0 170 0 169 -57 3 -58 3 -3 39 c-6 69 -11 67 180 64 l173 -3
0 -50z m175 -30 l0 -85 75 0 75 0 0 85 0 86 58 -3 57 -3 3 -222 2 -223 -60 0
-60 0 0 85 0 85 -75 0 -75 0 0 -85 0 -85 -60 0 -60 0 0 218 c0 120 3 222 7
225 3 4 30 7 60 7 l53 0 0 -85z m640 35 l0 -49 -82 -3 -83 -3 0 -35 0 -35 78
-3 77 -3 0 -44 0 -44 -77 -3 -78 -3 0 -40 0 -40 88 -3 87 -3 0 -44 0 -45 -150
0 -150 0 0 218 c0 120 3 222 7 225 3 4 69 7 145 7 l138 0 0 -50z m500 0 l0
-49 -82 -3 -83 -3 0 -40 0 -40 78 -3 77 -3 0 -44 0 -44 -77 -3 -78 -3 -3 -82
-3 -83 -59 0 -60 0 0 218 c0 120 3 222 7 225 3 4 69 7 145 7 l138 0 0 -50z
m200 -175 l0 -225 -60 0 -60 0 0 218 c0 120 3 222 7 225 3 4 30 7 60 7 l53 0
0 -225z m329 209 c39 -11 57 -23 71 -47 34 -56 18 -141 -31 -168 l-21 -11 22
-23 c12 -13 32 -60 45 -104 l23 -81 -62 0 -62 0 -25 78 c-23 74 -25 77 -56 80
l-33 3 0 -80 0 -81 -60 0 -60 0 0 219 0 220 28 4 c66 10 172 6 221 -9z m442
-1 c7 -7 7 -23 0 -51 l-11 -41 -68 6 c-54 4 -70 2 -81 -10 -19 -23 -8 -33 74
-71 108 -50 140 -113 97 -195 -33 -66 -144 -97 -252 -71 l-51 12 6 42 c9 54
17 61 56 47 75 -26 152 -3 129 39 -5 10 -33 26 -61 36 -78 29 -120 69 -125
124 -6 58 21 104 79 131 34 16 58 19 120 16 43 -2 82 -8 88 -14z m424 -38 l0
-50 -57 -3 -58 -3 0 -169 0 -170 -60 0 -60 0 0 170 0 169 -57 3 -58 3 -3 39
c-6 69 -11 67 180 64 l173 -3 0 -50z m-2754 -512 c7 -7 7 -23 0 -51 l-11 -41
-68 6 c-54 4 -70 2 -81 -10 -19 -23 -8 -33 74 -71 108 -50 140 -113 97 -195
-33 -66 -144 -97 -252 -71 l-51 12 6 42 c9 54 17 61 56 47 75 -26 152 -3 129
39 -5 10 -33 26 -61 36 -78 29 -120 69 -125 124 -6 58 21 104 79 131 34 16 58
19 120 16 43 -2 82 -8 88 -14z m424 -38 l0 -50 -57 -3 -58 -3 0 -169 0 -170
-60 0 -60 0 0 170 0 169 -57 3 -58 3 -3 39 c-6 69 -11 67 180 64 l173 -3 0
-50z m345 5 l0 -49 -82 -3 -83 -3 0 -35 0 -35 78 -3 77 -3 0 -44 0 -44 -77 -3
-78 -3 0 -40 0 -40 88 -3 87 -3 0 -44 0 -45 -150 0 -150 0 0 218 c0 120 3 222
7 225 3 4 69 7 145 7 l138 0 0 -50z m348 26 c69 -36 94 -135 52 -204 -25 -41
-89 -71 -152 -72 l-48 0 0 -75 0 -75 -60 0 -60 0 0 219 0 220 28 4 c59 11 207
0 240 -17z m1485 -411 c-2 -6 -62 -11 -148 -13 l-145 -3 0 -129 0 -130 -130 0
-130 0 0 -130 0 -129 -132 -3 -133 -3 -3 -127 -3 -127 -127 -3 -127 -3 -3
-132 c-4 -184 -22 -174 -22 12 l0 145 130 0 130 0 0 130 0 130 130 0 129 0 3
133 3 132 128 3 127 3 0 123 c0 67 3 126 7 130 11 11 318 2 316 -9z m-2843
-321 c6 -177 12 -197 66 -220 27 -11 43 -12 74 -4 66 18 74 40 80 224 4 115 8
161 18 164 18 6 17 -287 -2 -331 -32 -76 -123 -110 -195 -72 -57 29 -71 76
-71 253 0 119 3 153 13 150 9 -3 13 -49 17 -164z m514 160 c9 -3 16 -13 16
-21 0 -11 -6 -12 -22 -6 -69 25 -138 -5 -138 -59 0 -46 16 -65 89 -103 72 -38
91 -62 91 -118 0 -82 -94 -129 -189 -96 -17 6 -31 17 -31 25 0 17 5 17 32 3
11 -6 40 -11 65 -11 60 0 93 30 93 83 0 45 -14 61 -90 99 -32 16 -66 40 -74
52 -33 46 -14 117 39 146 22 12 94 16 119 6z m326 -9 c0 -12 -16 -15 -85 -15
l-85 0 0 -80 0 -80 80 0 c47 0 80 -4 80 -10 0 -6 -33 -10 -80 -10 l-80 0 0
-90 0 -90 90 0 c53 0 90 -4 90 -10 0 -6 -42 -10 -105 -10 l-105 0 0 205 0 205
100 0 c82 0 100 -3 100 -15z m430 0 c0 -12 -14 -15 -65 -15 l-65 0 0 -190 c0
-162 -2 -190 -15 -190 -13 0 -15 28 -15 190 l0 190 -64 0 c-60 0 -84 8 -69 24
3 3 71 6 150 6 120 0 143 -2 143 -15z m68 -78 l3 -87 109 0 109 0 3 87 c2 58
7 88 16 91 9 3 12 -42 12 -202 0 -176 -2 -206 -15 -206 -12 0 -15 18 -15 100
l0 100 -110 0 -110 0 0 -100 c0 -82 -3 -100 -15 -100 -13 0 -15 30 -15 206 0
160 3 205 13 202 8 -3 13 -33 15 -91z m552 78 c0 -12 -16 -15 -85 -15 l-85 0
0 -80 0 -80 80 0 c47 0 80 -4 80 -10 0 -6 -33 -10 -80 -10 l-80 0 0 -90 0 -90
90 0 c53 0 90 -4 90 -10 0 -6 -42 -10 -105 -10 l-105 0 0 205 0 205 100 0 c82
0 100 -3 100 -15z m-1756 -491 c9 -3 16 -13 16 -21 0 -11 -6 -12 -22 -6 -69
25 -138 -5 -138 -59 0 -46 16 -65 89 -103 72 -38 91 -62 91 -118 0 -82 -94
-129 -189 -96 -17 6 -31 17 -31 25 0 17 5 17 32 3 11 -6 40 -11 65 -11 60 0
93 30 93 83 0 45 -14 61 -90 99 -32 16 -66 40 -74 52 -33 46 -14 117 39 146
22 12 94 16 119 6z m366 -9 c0 -12 -14 -15 -65 -15 l-65 0 0 -190 c0 -162 -2
-190 -15 -190 -13 0 -15 28 -15 190 l0 190 -64 0 c-60 0 -84 8 -69 24 3 3 71
6 150 6 120 0 143 -2 143 -15z m207 -191 c40 -109 73 -200 73 -201 0 -2 -6 -3
-14 -3 -12 0 -28 33 -61 128 -3 9 -26 12 -86 10 l-81 -3 -23 -63 c-25 -69 -29
-76 -43 -71 -8 3 75 250 131 392 4 10 13 17 20 15 6 -3 45 -94 84 -204z m171
-2 c2 -175 0 -202 -13 -202 -13 0 -15 28 -15 206 0 160 3 205 13 202 9 -4 13
-56 15 -206z m262 195 c74 -25 87 -131 24 -182 l-27 -22 21 -21 c12 -12 22
-25 22 -29 0 -5 9 -39 19 -76 17 -61 17 -68 3 -65 -10 2 -21 25 -32 66 -21 88
-45 112 -109 112 l-51 0 0 -90 c0 -73 -3 -90 -15 -90 -13 0 -15 29 -15 199 0
224 -6 208 80 209 25 1 61 -4 80 -11z m304 7 c9 -3 16 -13 16 -21 0 -11 -6
-12 -22 -6 -69 25 -138 -5 -138 -59 0 -46 16 -65 89 -103 72 -38 91 -62 91
-118 0 -82 -94 -129 -189 -96 -17 6 -31 17 -31 25 0 17 5 17 32 3 11 -6 40
-11 65 -11 60 0 93 30 93 83 0 45 -14 61 -90 99 -32 16 -66 40 -74 52 -33 46
-14 117 39 146 22 12 94 16 119 6z"/>
<path d="M1467 3417 c-10 -39 -17 -75 -17 -79 0 -5 18 -8 39 -8 l39 0 -20 78
c-11 42 -21 78 -22 79 -1 2 -10 -30 -19 -70z"/>
<path d="M3010 2905 c0 -53 1 -55 28 -55 60 0 94 57 56 94 -8 9 -31 16 -50 16
l-34 0 0 -55z"/>
<path d="M2220 2350 c0 -59 0 -60 28 -60 41 0 72 26 72 60 0 34 -31 60 -72 60
-28 0 -28 -1 -28 -60z"/>
<path d="M1596 1272 c-16 -48 -31 -93 -34 -99 -3 -10 14 -13 68 -13 39 0 70 4
68 9 -1 5 -16 50 -33 100 -16 50 -32 90 -35 91 -3 0 -18 -40 -34 -88z"/>
<path d="M2020 1295 l0 -85 54 0 c90 0 139 63 100 129 -20 33 -39 41 -106 41
l-48 0 0 -85z"/>
</g>
</svg>
