<?xml version="1.0" standalone="no"?>
<!DOCTYPE svg PUBLIC "-//W3C//DTD SVG 20010904//EN"
 "http://www.w3.org/TR/2001/REC-SVG-20010904/DTD/svg10.dtd">
<svg version="1.0" xmlns="http://www.w3.org/2000/svg"
 width="512.000000pt" height="512.000000pt" viewBox="0 0 512.000000 512.000000"
 preserveAspectRatio="xMidYMid meet">
<metadata>
Created by potrace 1.11, written by Peter Selinger 2001-2013
</metadata>
<g transform="translate(0.000000,512.000000) scale(0.100000,-0.100000)"
fill="#000000" stroke="none">
<path d="M0 2560 l0 -2560 2560 0 2560 0 0 2560 0 2560 -2560 0 -2560 0 0
-2560z m868 1848 l-3 -73 -82 -3 -83 -3 -2 -247 -3 -247 -85 0 -85 0 -3 248
-2 247 -80 0 -80 0 0 75 0 75 255 0 256 0 -3 -72z m411 -25 c60 -196 161 -538
161 -546 0 -4 -42 -6 -92 -5 l-93 3 -19 73 -19 73 -85 -3 -86 -3 -9 -35 c-4
-19 -13 -52 -18 -72 l-10 -38 -84 0 c-72 0 -85 3 -85 16 0 13 134 484 171 602
l11 32 113 0 114 0 30 -97z m421 -35 c1 -107 3 -130 13 -116 7 10 43 69 82
133 l69 115 103 0 c57 0 103 -2 103 -5 0 -3 -45 -65 -99 -138 l-100 -132 18
-30 c49 -80 191 -333 191 -339 0 -4 -44 -5 -97 -4 l-98 3 -34 65 c-18 36 -49
94 -69 129 l-35 65 -23 -29 c-20 -26 -24 -42 -26 -130 l-3 -100 -82 -3 -83 -3
0 326 0 325 85 0 85 0 0 -132z m860 62 l0 -70 -120 0 -120 0 0 -55 0 -55 115
0 115 0 0 -65 0 -65 -115 0 -115 0 0 -60 0 -60 130 0 131 0 -3 -72 -3 -73
-215 0 -215 0 -3 323 -2 322 210 0 210 0 0 -70z m922 -721 c110 -23 158 -77
158 -175 0 -47 -5 -67 -25 -97 -14 -20 -29 -37 -33 -37 -4 0 -16 -7 -26 -15
-19 -14 -18 -15 7 -35 29 -23 46 -65 81 -192 l24 -88 -89 0 -88 0 -19 63 c-11
34 -23 76 -26 94 -12 52 -42 83 -82 83 l-34 0 0 -120 0 -120 -90 0 -90 0 2
318 3 317 45 6 c79 10 227 9 282 -2z m635 0 c50 -13 49 -11 22 -112 -9 -34
-13 -38 -32 -32 -12 3 -52 9 -88 12 -77 6 -109 -6 -109 -42 0 -27 19 -40 110
-74 120 -46 177 -117 168 -211 -7 -71 -44 -122 -115 -157 -51 -25 -69 -28
-153 -28 -118 0 -190 18 -190 49 1 45 27 121 41 118 8 -2 41 -11 73 -19 97
-25 166 -7 166 43 0 28 -23 45 -103 74 -145 54 -208 156 -163 264 16 39 80 95
127 112 44 16 187 17 246 3z m-3247 -69 l0 -70 -85 0 -85 0 0 -250 0 -250 -90
0 -90 0 0 250 0 250 -80 0 -80 0 0 70 0 70 255 0 255 0 0 -70z m250 -45 l0
-115 105 0 105 0 0 115 0 115 85 0 85 0 0 -320 0 -320 -85 0 -85 0 0 125 0
125 -105 0 -105 0 0 -125 0 -125 -85 0 -85 0 0 320 0 320 85 0 85 0 0 -115z
m920 45 l0 -70 -125 0 -125 0 0 -50 0 -50 120 0 120 0 0 -70 0 -70 -120 0
-121 0 3 -57 3 -58 128 -3 127 -3 0 -69 0 -70 -215 0 -215 0 0 320 0 320 210
0 210 0 0 -70z m710 0 l0 -70 -120 0 -121 0 3 -57 3 -58 113 -3 112 -3 0 -69
0 -70 -115 0 -115 0 0 -120 0 -120 -85 0 -85 0 0 320 0 320 205 0 205 0 0 -70z
m290 -250 l0 -320 -90 0 -90 0 0 320 0 320 90 0 90 0 0 -320z m1710 250 l0
-70 -85 0 -85 0 0 -250 0 -250 -85 0 -85 0 0 250 0 250 -85 0 -85 0 0 70 0 70
255 0 255 0 0 -70z m-3969 -720 l37 -10 -16 -63 c-8 -34 -18 -65 -21 -69 -4
-4 -28 -1 -55 7 -91 28 -161 12 -161 -35 0 -27 11 -34 130 -85 103 -45 145
-99 145 -187 0 -85 -51 -152 -141 -183 -55 -20 -201 -19 -268 1 -58 17 -57 11
-30 117 11 42 11 42 69 22 64 -22 155 -20 180 5 11 11 20 25 20 30 0 21 -40
48 -108 74 -137 52 -197 135 -172 234 27 110 127 167 275 158 44 -3 96 -10
116 -16z m619 -65 l0 -75 -80 0 -80 0 -2 -247 -3 -248 -85 0 -85 0 -3 248 -2
247 -80 0 -80 0 0 75 0 75 250 0 250 0 0 -75z m500 5 l0 -70 -120 0 -120 0 0
-55 0 -55 115 0 116 0 -3 -67 -3 -68 -112 -3 -113 -3 0 -54 0 -54 128 -3 127
-3 0 -70 0 -70 -215 0 -215 0 -3 323 -2 322 210 0 210 0 0 -70z m451 60 c94
-26 149 -97 149 -194 0 -77 -29 -138 -81 -173 -44 -29 -132 -53 -196 -53 l-43
0 0 -110 0 -111 -82 3 -83 3 -3 317 -2 317 22 4 c47 9 284 7 319 -3z m2279
-725 c0 -13 -31 -15 -215 -15 l-215 0 0 -190 0 -190 -190 0 -190 0 0 -190 0
-190 -190 0 -190 0 0 -185 0 -185 -185 0 -185 0 0 -190 0 -190 -1356 0 c-1286
0 -1355 1 -1352 17 3 17 76 18 1336 21 l1332 2 0 185 0 185 190 0 190 0 0 190
0 190 190 0 190 0 0 190 0 190 185 0 185 0 0 185 0 185 235 0 c202 0 235 -2
235 -15z m-3432 -116 c27 -9 30 -14 22 -29 -9 -17 -13 -18 -45 -4 -102 42
-207 -20 -191 -114 7 -47 36 -75 109 -107 117 -52 157 -97 157 -178 0 -49 -27
-96 -73 -131 -57 -42 -242 -27 -242 20 0 20 3 20 72 -4 59 -20 125 -9 166 28
29 25 32 34 32 84 0 70 -21 94 -137 150 -104 51 -132 87 -125 159 8 87 69 137
168 137 31 0 70 -5 87 -11z m-746 -216 c3 -211 4 -219 28 -262 33 -58 80 -84
143 -78 60 5 95 30 125 87 21 42 22 56 22 257 l0 213 26 0 26 0 -4 -212 -3
-213 -30 -60 c-38 -76 -88 -105 -178 -105 -81 0 -136 32 -169 97 -22 45 -23
61 -26 271 -3 215 -3 222 16 222 19 0 20 -9 24 -217z m1198 202 c0 -12 -20
-15 -120 -15 l-120 0 0 -115 0 -115 115 0 c96 0 115 -3 115 -15 0 -12 -19 -15
-115 -15 l-115 0 0 -130 0 -130 130 0 c109 0 130 -2 130 -15 0 -13 -24 -15
-155 -15 l-155 0 0 290 0 290 145 0 c122 0 145 -2 145 -15z m620 0 c0 -12 -17
-15 -95 -15 l-95 0 0 -275 c0 -268 0 -275 -20 -275 -20 0 -20 7 -20 275 l0
275 -100 0 c-82 0 -100 3 -100 15 0 13 31 15 215 15 184 0 215 -2 215 -15z
m100 -110 l0 -125 165 0 165 0 0 125 c0 118 1 125 20 125 20 0 20 -7 20 -290
0 -283 0 -290 -20 -290 -19 0 -20 7 -20 145 l0 145 -165 0 -165 0 0 -145 c0
-138 -1 -145 -20 -145 -20 0 -20 7 -20 290 0 283 0 290 20 290 19 0 20 -7 20
-125z m800 110 c0 -12 -23 -15 -122 -17 l-123 -3 0 -110 0 -110 118 -3 c94 -2
117 -5 117 -17 0 -12 -23 -15 -117 -17 l-118 -3 0 -125 0 -125 133 -3 c108 -2
132 -5 132 -17 0 -13 -25 -15 -155 -15 l-155 0 0 290 0 290 145 0 c121 0 145
-2 145 -15z m-2509 -705 c23 -13 14 -44 -10 -34 -9 4 -41 9 -72 11 -71 6 -115
-14 -135 -64 -31 -73 0 -115 129 -178 100 -49 127 -83 127 -159 0 -88 -55
-148 -148 -162 -80 -12 -195 27 -165 57 6 6 22 4 46 -6 46 -19 130 -19 167 0
42 22 60 53 60 106 0 64 -26 93 -124 138 -89 41 -131 82 -142 136 -19 101 74
182 195 170 29 -3 61 -10 72 -15z m1855 9 c33 -9 44 -16 42 -28 -2 -9 -12 -15
-23 -13 -122 19 -155 14 -191 -25 -31 -33 -33 -99 -4 -136 11 -14 58 -43 103
-65 91 -44 131 -82 141 -136 16 -86 -37 -165 -124 -186 -82 -20 -207 9 -194
45 7 18 4 18 50 -1 52 -22 155 -16 185 11 36 33 51 80 39 124 -13 49 -38 71
-132 115 -96 46 -128 83 -128 150 0 118 100 179 236 145z m-1356 -19 c0 -19
-7 -20 -95 -20 l-95 0 0 -275 c0 -268 0 -275 -20 -275 -20 0 -20 7 -20 275 l0
275 -95 0 c-88 0 -95 1 -95 20 0 19 7 20 210 20 203 0 210 -1 210 -20z m294
-228 c49 -136 97 -268 107 -294 l19 -48 -24 0 c-20 0 -27 12 -55 93 -17 50
-35 98 -40 105 -6 9 -37 12 -121 10 l-113 -3 -36 -102 c-31 -89 -39 -103 -58
-103 l-23 0 18 48 c10 26 59 158 108 294 76 211 92 248 109 248 17 0 33 -36
109 -248z m256 -47 c0 -288 0 -295 -20 -295 -20 0 -20 7 -20 295 0 288 0 295
20 295 20 0 20 -7 20 -295z m390 273 c57 -30 83 -76 77 -141 -5 -53 -28 -91
-75 -123 l-32 -22 25 -16 c32 -21 49 -56 69 -143 9 -39 20 -83 26 -97 9 -23 7
-26 -14 -26 -22 0 -26 8 -46 92 -12 51 -29 105 -38 120 -23 39 -70 58 -141 58
l-61 0 0 -135 c0 -128 -1 -135 -20 -135 -20 0 -20 7 -20 289 0 267 1 290 18
294 9 3 55 5 102 6 71 1 93 -3 130 -21z"/>
<path d="M1101 4239 c-12 -56 -25 -108 -28 -115 -4 -11 9 -14 57 -14 54 0 61
2 56 18 -3 9 -15 58 -27 107 -12 50 -25 93 -28 97 -4 5 -17 -38 -30 -93z"/>
<path d="M3330 3495 l0 -75 44 0 c59 0 96 29 96 76 0 50 -29 74 -90 74 l-50 0
0 -75z"/>
<path d="M2180 2701 c0 -91 9 -100 79 -81 47 12 71 42 71 85 0 49 -35 75 -98
75 l-52 0 0 -79z"/>
<path d="M1293 1148 l-50 -143 95 -3 c52 -1 97 -1 100 2 2 3 -18 69 -45 147
l-50 141 -50 -144z"/>
<path d="M1907 1313 c-16 -4 -17 -17 -15 -126 l3 -122 40 -3 c67 -6 141 15
169 49 56 66 39 155 -36 189 -40 18 -117 25 -161 13z"/>
</g>
</svg>
