<svg width="20px" height="13px" viewBox="0 0 20 13"  xmlns="http://www.w3.org/2000/svg">
    <g id="STEP2" stroke="none" stroke-width="1" fill="none" fill-rule="evenodd">
        <g id="Home/login" transform="translate(-36.000000, -610.000000)" fill="#FFFFFF">
            <g id="toolbar" transform="translate(0.000000, 592.000000)">
                <g id="navbar" transform="translate(36.000000, 9.000000)">
                    <g id="icon_rank" transform="translate(0.000000, 9.000000)">
                        <path d="M14,11 L18,11 L18,7 L14,7 L14,11 Z M8,11 L12,11 L12,2 L8,2 L8,11 Z M2,11 L6,11 L6,6 L2,6 L2,11 Z M19,5 L14,5 L14,1 C14,0.448 13.552,0 13,0 L7,0 C6.448,0 6,0.448 6,1 L6,4 L1,4 C0.448,4 0,4.448 0,5 L0,12 C0,12.552 0.448,13 1,13 L7,13 L13,13 L19,13 C19.552,13 20,12.552 20,12 L20,6 C20,5.448 19.552,5 19,5 L19,5 Z"></path>
                    </g>
                </g>
            </g>
        </g>
    </g>
</svg>
